<?xml version="1.0" encoding="UTF-8"?>
<!DOCTYPE svg PUBLIC "-//W3C//DTD SVG 1.1//EN" "http://www.w3.org/Graphics/SVG/1.1/DTD/svg11.dtd">
<!-- Creator: CorelDRAW -->
<svg xmlns="http://www.w3.org/2000/svg" xml:space="preserve" width="600px" height="600px" style="shape-rendering:geometricPrecision; text-rendering:geometricPrecision; image-rendering:optimizeQuality; fill-rule:evenodd; clip-rule:evenodd"
viewBox="0 0 600 750"
 xmlns:xlink="http://www.w3.org/1999/xlink">
 <defs>
  <style type="text/css">
   <![CDATA[
    .fil0 {fill:#1F1A17}
    .fil20 {fill:#060606}
    .fil18 {fill:#515151}
    .fil15 {fill:#636363}
    .fil19 {fill:#685818}
    .fil13 {fill:#707070}
    .fil7 {fill:#7E7E7E}
    .fil17 {fill:#8F8F8F}
    .fil16 {fill:#947C21}
    .fil4 {fill:#A28823}
    .fil11 {fill:#B09526}
    .fil12 {fill:#B1B1B1}
    .fil5 {fill:#BDBDBD}
    .fil3 {fill:#C1A229}
    .fil6 {fill:#C9C9C9}
    .fil14 {fill:#D3B22D}
    .fil9 {fill:#E0E0E0}
    .fil8 {fill:#E4BF30}
    .fil2 {fill:#F2CC33}
    .fil1 {fill:#FDDC37}
    .fil10 {fill:#FFF03B}
   ]]>
  </style>
 </defs>
 <g id="Livello_x0020_1">
  <metadata id="CorelCorpID_0Corel-Layer"/>
  <g id="_82034488">
   <path id="_81581824" class="fil0" d="M452.558 374.421l4.2045 7.8945 0.1035 7.2555c15.945,0.225 30.7965,8.577 39.156,22.1925 9.849,17.205 7.716,41.376 -2.757,52.9155l-14.1435 13.251 -25.257 8.0535c-12.6975,11.4495 -32.412,9.7065 -45.18,-0.5685l-4.8795 -3.975c0.1635,10.5015 -2.4825,21.1425 -6.5805,30.6975l-0.0315 68.8965 10.317 8.598 0 52.719 -202.308 59.595 -43.794 -60.4815 -5.4855 -94.392c-5.109,4.077 -12.495,6.9915 -18.417,6.9915 -8.247,0 -12.6015,-4.3215 -18.465,-8.865l-3.1065 -2.973c-6.666,-7.9995 -9.516,-15.6405 -11.2995,-23.5545 -1.623,-7.2045 -2.5275,-14.5665 -1.3935,-24.015 1.092,-9.09 2.799,-14.9775 9.7425,-26.013l-0.48 -4.2675c-6.759,-10.6755 -5.919,-25.308 -7.944,-37.3395 -2.853,-16.959 -5.4735,-34.2975 -6.9045,-51.4335 -0.336,-4.0275 2.502,-14.415 3.462,-18.5115 2.382,-10.158 4.8555,-20.298 7.362,-30.426 2.4885,-10.0575 5.01,-20.1105 7.6395,-30.132 1.392,-5.3055 2.4795,-10.7805 4.584,-15.867 6.1635,-16.4355 19.959,-27.7095 37.7145,-30.663 4.107,-14.0595 10.1535,-15.132 25.2225,-18.009l5.8695 -0.4785c-4.1295,-4.986 -9.411,-21.957 -9.972,-28.1385l-3.225 -65.0925c0,-7.461 -0.4935,-14.8815 -0.402,-22.3575 0.1695,-13.7505 7.899,-32.436 22.539,-34.6905l13.5555 -2.085 4.8615 0 -0.066 -18.0465 -0.2145 -13.035 101.219 -0.018 0.375 31.0995c4.3815,0 8.6715,0.03 12.981,1.0215 20.2815,4.668 28.866,15.8475 28.9575,32.613l0.5175 94.3755c-0.2025,9.234 -0.207,13.8495 -6.189,21.177 10.9815,1.7745 24.6315,2.73 34.6215,7.725 7.3035,4.56 13.1895,10.1835 17.988,16.6215 6.2535,8.394 7.3995,15.8025 10.1655,25.9455l9.6975 35.559c3.822,13.3845 6.9765,26.076 13.536,38.505l7.56 14.3295 4.5435 7.3965z"/>
   <path id="_81346320" class="fil1" d="M198.632 95.121c19.2405,1.6005 138.043,21.2535 149.247,15.8775l-0.795 -3.1755c-13.9965,1.164 -140.877,-11.9505 -144.482,-15.084l-3.9705 2.382z"/>
   <polygon id="_83325904" class="fil1" points="132.743,496.815 135.123,507.135 153.382,506.34 151,497.608 150.207,496.02 "/>
   <polygon id="_82964064" class="fil1" points="199.427,498.402 198.632,503.166 206.91,500.57 208.158,503.166 215.303,503.166 216.098,495.226 214.509,495.226 201.013,495.226 200.22,489.669 "/>
   <polygon id="_83488664" class="fil1" points="478.071,432.512 478.071,440.451 490.773,437.276 489.185,427.749 "/>
   <polygon id="_82576536" class="fil1" points="428.851,452.358 431.233,457.916 434.447,457.13 435.186,452.595 444.729,453.152 440.76,447.596 "/>
   <path id="_219120656" class="fil2" d="M348.672 128.463l-0.7935 -17.4645c-11.2035,5.376 -130.007,-14.277 -149.247,-15.8775l-0.7935 0.7935 28.6755 4.6485 2.3055 1.5465 27.639 3.525 0.126 -0.987 0.0165 1.4025 11.892 0.9795 0 1.587c15.651,0 52.6785,6.264 66.684,9.5265l0.357 7.2645 0.4095 -1.6815 10.1325 9.4425 2.5965 -4.7055z"/>
   <polygon id="_82244296" class="fil2" points="198.632,503.166 197.045,504.753 193.869,511.104 212.129,510.31 215.303,503.166 208.158,503.166 206.91,500.57 "/>
   <polygon id="_81473216" class="fil2" points="135.123,507.135 136.712,513.486 156.558,511.104 153.382,506.34 "/>
   <polygon id="_82192736" class="fil2" points="431.233,457.916 435.202,463.471 447.111,457.916 450.285,457.916 444.729,453.152 435.186,452.595 434.447,457.13 "/>
   <path id="_83871712" class="fil2" d="M419.325 399.963l0 1.5885c1.9005,2.838 3.6015,5.811 5.5575,8.7315l3.1755 -1.587 -1.5885 0 -4.7625 -9.5265 -2.382 0.7935z"/>
   <path id="_82368504" class="fil3" d="M282.781 133.227c5.5875,0.465 10.635,4.5585 11.1135,10.32 -4.9155,-2.601 -4.341,-4.764 -11.907,-4.764l0 7.1445c3.747,1.7985 8.7315,2.3865 8.7315,8.733l0 2.382c0,5.6895 -4.008,7.632 -8.7315,8.7315l0.7935 22.2285 18.258 3.1755 -3.1755 -19.053 -2.3805 0c-2.145,0 -2.19,-0.378 -3.969,-0.7935l0 -9.5265c0,-6.8745 3.282,-19.047 4.7625,-25.4025l0.564 -0.564 -7.1445 -7.146 -0.6915 0.4815 2.265 -3.6525 -6.9225 -8.043 -92.0655 -16.0065 -0.795 0.7935 0.8115 1.4955 73.812 13.5885c2.3625,1.5825 15.0825,8.7795 15.0825,11.1135l0.0405 3.8505 1.548 0.9135z"/>
   <path id="_82509624" class="fil3" d="M348.672 211.024l0.7935 -3.1755 -3.3525 3 -12.48 2.0415 -14.334 -0.2775c-3.5865,0 -5.982,-7.1445 -8.733,-7.1445 -0.057,0 -4.1655,2.094 -4.7625,2.3805l-2.739 -5.049 1.1505 -2.0955 -6.351 0 0 -1.587c3.507,0 8.9085,0.6045 11.115,-0.795l1.587 -5.556 -25.4025 -1.5885c-1.2045,2.5575 4.857,15.0405 7.8945,16.6545l-0.618 2.2455 4.6305 4.9155 12.7335 0.717 36.516 -1.6305 -0.1995 -0.843 2.5515 -2.2125z"/>
   <path id="_83256960" class="fil3" d="M293.101 237.222l-8.733 0.7935c0.5445,0.969 0.795,0.849 0.795,2.382l0 11.1135 5.556 0 10.32 -0.7935 4.764 0 4.7625 -0.7935 -4.7625 0 0 -13.4955 2.382 -0.795 -15.084 1.5885z"/>
   <polygon id="_83853120" class="fil3" points="273.255,89.5635 281.988,89.5635 281.193,60.1905 272.462,60.1905 "/>
   <polygon id="_82760096" class="fil3" points="176.404,513.486 174.022,519.042 193.29,511.13 192.278,519.885 204.983,520.63 205.778,520.63 209.747,514.279 193.869,514.279 193.869,511.104 197.045,504.753 "/>
   <path id="_82133512" class="fil3" d="M416.149 402.345l5.5575 11.1135 -3.969 3.9705 -6.351 2.3805 -4.764 4.764 0.237 2.829 19.6095 -9.9735 5.5575 -9.5265 -7.0875 4.0725 -0.057 -1.692c-1.956,-2.9205 -3.657,-5.8935 -5.5575,-8.7315l0 -1.5885 -3.1755 2.382z"/>
   <polygon id="_83238712" class="fil3" points="138.298,516.661 139.887,520.63 156.558,518.249 156.558,515.073 "/>
   <polygon id="_80702528" class="fil3" points="140.68,448.389 140.565,453.248 142.164,455.544 143.063,459.503 145.443,457.916 144.649,445.214 "/>
   <polygon id="_46882512" class="fil3" points="476.483,448.389 476.483,449.183 477.328,451.746 487.597,449.183 489.185,445.214 "/>
   <path id="_82443088" class="fil4" d="M344.703 217.375l-16.659 0.9825 -19.065 -0.189 -30.957 -2.424c-1.4565,-2.703 -6.354,-10.092 -6.354,-13.452l0 -2.382c-5.7525,-2.322 -19.263,-83.355 -26.1975,-83.355l-7.9395 0c-1.1025,-2.733 -21.2445,-5.3835 -25.4025,-6.351 1.968,2.6865 21.681,6.702 26.991,7.1445 0.8205,9.8685 11.097,38.91 14.136,50.166 2.361,8.745 5.127,16.773 7.308,25.239 1.1115,4.311 2.2485,8.199 3.3285,12.549 2.025,8.1435 4.17,7.899 5.394,11.2785 7.053,0 11.442,2.3985 18.2385,2.4 7.065,0.003 13.6275,0.243 20.667,0.768 10.5375,0.7875 28.389,3.2685 36.5115,-2.3745z"/>
   <path id="_83085200" class="fil4" d="M114.483 492.051l-1.587 8.733 2.3805 0c1.248,-3.09 9.8715,-4.0785 11.256,-8.346l5.415 -1.974 0 1.587 0.795 -10.32 -1.5495 -0.9135 -14.124 10.443 0.5895 0.7905 -3.1755 0z"/>
   <polygon id="_83246416" class="fil4" points="177.992,504.753 176.404,511.898 176.404,513.486 197.045,504.753 198.632,503.166 199.427,498.402 190.785,501.082 190.694,499.195 "/>
   <polygon id="_84081248" class="fil4" points="261.346,252.305 261.346,238.016 254.202,238.016 254.202,252.305 "/>
   <polygon id="_80764800" class="fil4" points="402.654,434.894 401.861,438.863 423.225,427.75 424.089,438.863 424.882,422.985 "/>
   <polygon id="_217909832" class="fil4" points="412.18,405.521 417.738,417.429 421.707,413.459 416.149,402.345 "/>
   <polygon id="_81473432" class="fil4" points="138.298,449.183 137.614,452.34 139.149,462.75 143.063,459.503 142.164,455.544 140.565,453.248 140.68,448.389 "/>
   <polygon id="_46975384" class="fil5" points="217.685,489.669 217.685,499.195 390.745,464.267 389.159,457.122 218.564,491.68 "/>
   <path id="_81323584" class="fil5" d="M140.68 438.069l7.938 -2.382c-2.4255,-0.933 -0.4455,-5.517 0.024,-9.5025 0.3975,-3.3705 0.93,-7.545 1.8795,-10.8225 1.818,-6.2685 4.0755,-14.6055 11.592,-14.6055l2.382 0c9.813,0 21.8805,34.6815 20.64,37.3125l0.795 0.7935 -5.0055 -30.12c-3.8355,-6.1365 -9.285,-22.2765 -9.285,-32.595l-6.351 0c-2.418,0 -2.9025,-0.36 -4.7625,-0.7935 -1.932,1.293 -11.9085,8.244 -11.9085,10.32l0 2.382c-6.828,2.7555 -7.938,37.686 -7.938,50.013z"/>
   <path id="_83475552" class="fil5" d="M420.914 393.612l3.1755 -1.587c-5.0115,-10.4445 -12.702,-43.2165 -12.702,-58.746l0.057 -12.8505 2.1765 0.963 -0.3735 -6.57 2.109 2.58 -11.9085 -43.662 0.795 7.938c-1.107,2.6775 0.717,9.5505 1.3035,13.8405 0.4425,3.24 -1.1985,9.69 -0.1935,15.216 0.9,4.944 1.98,25.65 2.0535,30.495 0.312,20.61 9.5535,35.4135 13.5075,52.383z"/>
   <polygon id="_82856416" class="fil6" points="217.685,489.669 218.564,491.68 389.159,457.122 387.38,450.03 216.94,483.573 "/>
   <path id="_219123624" class="fil6" d="M148.618 435.687l11.115 -1.587 3.1755 -7.146 10.0515 0.183 4.2375 7.7565 7.938 3.1755c1.2405,-2.631 -10.827,-37.3125 -20.64,-37.3125l-2.382 0c-7.5165,0 -9.774,8.337 -11.592,14.6055 -0.9495,3.2775 -1.482,7.452 -1.8795,10.8225 -0.4695,3.9855 -2.4495,8.5695 -0.024,9.5025z"/>
   <path id="_83635920" class="fil6" d="M424.089 392.025l8.7315 -3.1755 -3.219 -13.5195 1.5345 -3.1365 -0.4545 -5.7975 6.903 6.576 -7.7445 -14.6775c-7.299,-13.833 -10.3245,-26.334 -14.484,-40.893l-2.109 -2.58 0.3735 6.57 -2.1765 -0.963 -0.057 12.8505c0,15.5295 7.6905,48.3015 12.702,58.746z"/>
   <path id="_84316336" class="fil6" d="M175.61 245.955l1.8825 1.629 21.1395 7.896c4.5825,0 7.683,1.935 11.8395,3.2445 3.6405,1.149 5.748,4.2375 8.817,6.4815l107.155 -8.1375 3.969 0 0.0105 -1.431 44.4465 -2.538 -0.8625 -1.5465 0.0675 -1.629 -1.7355 -1.5315 0.942 2.325c-11.604,-2.703 -85.6005,5.874 -103.195,7.1505 -5.985,0.435 -50.082,3.927 -51.1035,3.4995 -2.0595,-0.861 -5.2095,-3.3345 -8.76,-4.776 -4.5915,-1.8615 -5.25,-2.502 -10.632,-3.6555 -3.093,-0.663 -17.952,-6.78 -20.01,-8.5695l-3.9705 1.5885z"/>
   <path id="_82509528" class="fil6" d="M148.618 265.007l-0.7935 3.9705c1.812,0.6555 6.3555,7.5885 8.5215,9.7365 2.232,2.211 7.7865,5.892 10.7835,7.476 8.127,4.2975 19.5015,5.8095 31.5015,5.8095l-1.587 -11.115c-18.4845,-0.411 -31.2195,-4.4085 -38.8995,-15.8775l0 -3.1755 -9.5265 3.1755z"/>
   <path id="_82094672" class="fil6" d="M377.25 262.626l1.5885 6.351c7.758,-3.723 13.827,2.751 22.2285,0.7935l0 -3.969 -0.795 -1.5885 -4.101 -6.219 0.9255 2.25 -2.2095 2.583 -17.637 -4.1715 0 3.9705z"/>
   <path id="_84081344" class="fil6" d="M320.049 150.667c0.5745,1.0275 1.134,3.1995 2.4255,3.1995 1.533,0 3.1755,-1.416 3.1755,-2.382 0,-2.1435 -0.3795,-2.1885 -0.7935,-3.969l-3.132 0.0225 -1.6755 3.129z"/>
   <path id="_82688104" class="fil7" d="M392.334 476.173l0 7.9395 -188.939 40.4865 -3.969 3.1755 0 3.969 3.1755 0c7.704,0 134.529,-28.818 136.543,-30.1665l0.1995 0.9765 52.0755 -10.542 0.9135 -1.548 0.7935 -11.9085 -0.7935 -10.32 0 7.938z"/>
   <path id="_83329992" class="fil7" d="M134.33 278.502c0.318,3.8205 9.5265,17.517 9.5265,19.053l0 2.382c0,13.1415 -7.1445,25.824 -7.1445,34.1355 -4.4595,6.6585 -8.7915,27.7005 -11.589,37.6305 -0.9975,3.5415 -5.733,17.0865 -5.6715,18.6015 0.2865,7.002 2.1765,14.6505 2.1765,22.3605l1.5885 0 3.1755 32.5485 3.969 -2.382c-3.1305,-4.9335 -5.5575,-43.2945 -5.5575,-53.982 0,-0.786 7.101,-21.711 8.2365,-25.1055 1.4295,-4.2675 6.4695,-22.2075 9.228,-23.3205l0 -2.382c0,-6.531 10.7265,-27.315 13.4955,-32.547l-3.831 -3.3225c-0.138,-5.1435 -3.7995,-11.2935 -8.076,-11.7615l-6.7305 -14.9115 2.7615 -4.1415 -5.5575 7.1445z"/>
   <path id="_82274568" class="fil7" d="M390.745 352.332c0.684,1.077 4.4565,23.952 4.791,26.964 1.4355,12.93 6.696,15.216 9.009,24.3795l5.253 -3.7125c-2.9595,-5.5935 -9.5265,-23.0895 -9.5265,-30.96l-2.778 0.069 -2.9595 -18.087 -3.4965 -2.6835 -1.8795 -6.2895 1.587 10.32z"/>
   <path id="_82001680" class="fil8" d="M194.662 98.2965l2.3805 1.599 108.895 16.086 -1.8585 1.149 0.6615 -0.4665 8.2065 7.0365 4.7715 -0.006 6.342 8.7375 2.382 0c3.612,2.4915 5.2575,5.748 5.5575,9.5265l-2.382 11.115 -0.7935 7.1445 -1.4655 12.6435 1.8015 4.3005 7.8525 -9.285 9.276 8.2185c3.3885,-14.5425 2.382,-29.853 2.382,-47.6325l-2.5965 4.7055 -10.1325 -9.4425 -0.4095 1.6815 -0.357 -7.2645c-14.0055,-3.2625 -51.033,-9.5265 -66.684,-9.5265l0 -1.587 -11.892 -0.9795 -0.0165 -1.4025 -0.126 0.987 -27.639 -3.525 -2.3055 -1.5465 -28.6755 -4.6485 -3.1755 2.382z"/>
   <polygon id="_83476032" class="fil8" points="295.483,89.5635 306.748,89.553 305.803,72.8925 305.803,60.9855 303.399,61.1655 294.688,60.1905 "/>
   <path id="_83475360" class="fil8" d="M319.299 234.047l-5.5575 0.7935 0 13.4955c4.6155,-0.102 6.939,-1.593 10.32,-2.3805 1.038,-2.094 0.795,0.6525 0.795,-2.382l0 -10.32 -5.5575 0.7935z"/>
   <polygon id="_82949912" class="fil8" points="478.071,440.451 476.483,448.389 489.185,445.214 490.773,437.276 "/>
   <path id="_83476224" class="fil8" d="M144.649 445.214l0.7935 12.702 4.764 -2.382 0.7935 -0.7935c-2.955,-1.0695 -3.1755,-6.5085 -3.1755,-10.32l-3.1755 0.7935z"/>
   <path id="_82380088" class="fil9" d="M324.062 245.955c-2.295,3.132 -7.872,3.969 -13.4955,3.969l-4.7625 0.7935c-1.5615,1.869 -8.9775,1.587 -12.702,1.587l-4.7625 0.795 -36.5175 0c-8.3235,0 -12.375,-1.383 -18.249,-1.599 -8.934,-0.3285 -9.567,-2.6715 -15.0945,-3.9585l0 -6.351 -38.898 3.1755c2.058,1.7895 16.917,7.9065 20.01,8.5695 5.382,1.1535 6.0405,1.794 10.632,3.6555 3.5505,1.4415 6.7005,3.915 8.76,4.776 1.0215,0.4275 45.1185,-3.0645 51.1035,-3.4995 17.595,-1.2765 91.5915,-9.8535 103.195,-7.1505l-0.942 -2.325 1.7355 1.5315c2.403,1.7595 3.1755,4.56 3.1755,8.7315l17.637 4.1715 2.2095 -2.583 -0.9255 -2.25 -0.6615 -0.9255 -7.1445 -7.938 -6.351 -3.1755 -13.4955 -3.1755 -0.7935 0 -2.4735 2.2275 6.669 1.8405 -0.285 0.9135 -45.2265 -11.9985c0.0345,4.857 1.455,9.177 -2.3475,10.1925z"/>
   <path id="_84082112" class="fil9" d="M200.22 638.121l7.938 10.32c7.083,-0.5895 39.27,-10.0665 46.8375,-12.702 6.5175,-2.268 44.679,-10.5165 46.044,-14.289l-7.938 -8.733 -92.8815 25.404z"/>
   <polygon id="_82931432" class="fil9" points="301.834,610.337 311.36,619.863 395.129,596.48 390.745,591.284 385.19,587.314 "/>
   <path id="_83831080" class="fil9" d="M197.045 280.884c-0.1485,-6.6855 -3.894,-15.5505 -7.959,-18.0555l-11.094 -0.9975 -19.8465 0 0 3.1755c7.68,11.469 20.415,15.4665 38.8995,15.8775z"/>
   <polygon id="_81789264" class="fil9" points="432.821,388.849 446.349,387.243 437.584,372.972 430.682,366.396 431.136,372.193 429.601,375.33 "/>
   <polygon id="_82196312" class="fil9" points="159.733,434.1 177.198,434.894 172.961,427.137 162.909,426.954 "/>
   <path id="_83636592" class="fil10" d="M151 454.74l-0.7935 0.7935 -7.1445 5.5575 -7.9395 12.702 -2.3805 7.938 -0.795 10.32 0.795 4.764 17.4645 -0.795c-4.461,-9.297 5.8845,-25.383 11.907,-26.991 4.4925,-1.0455 5.9355,-3.1755 12.702,-3.1755 12.5775,0 25.404,11.6445 25.404,23.8155l0.7935 5.5575 13.4955 0 1.5885 0c4.074,-6.423 -6.0735,-23.7735 -7.1445,-27.7845l-3.054 -2.517 -6.627 -6.315c-5.031,-3.648 -9.885,-6.864 -18.402,-8.3355 -9.6435,-1.6665 -22.7625,0.462 -28.281,5.259l-1.5885 -0.7935z"/>
   <path id="_80412496" class="fil10" d="M421.707 399.169l4.7625 9.5265 1.5885 0 7.359 -2.8515 -3.39 2.058 -5.5575 9.5265 -1.587 5.556 -0.7935 15.8775 4.7625 13.4955 11.9085 -4.7625 -2.382 -5.5575 0 -3.1755 -0.7935 -7.938c-0.111,-3.1875 0.6015,-5.0475 2.3805,-6.351l4.764 -6.351 3.969 -3.1755 7.1445 -0.7935 0.7935 0c4.4535,0 11.8095,3.3585 13.98,5.8665 4.6515,5.3715 4.464,8.088 7.455,12.3915l11.1135 -4.7625 -2.3805 -7.9395c-4.497,-8.5125 -12.5085,-14.1375 -21.642,-17.7885 -2.9955,-1.1985 -6.858,-2.058 -12.495,-2.058 -7.218,0 -11.7915,4.4235 -15.8775,4.764l2.2065 -1.866 -3 -6.867c-4.374,-2.775 -11.8725,1.074 -14.289,3.1755z"/>
   <path id="_84215480" class="fil10" d="M202.602 92.739c3.6045,3.1335 130.485,16.248 144.482,15.084l-2.3805 -6.351 -2.382 -3.1755 -0.7935 -0.7935c-4.125,-3.3 -7.806,-4.4265 -13.059,-5.6355 -1.809,-0.4155 -3.975,-0.7155 -6.7875,-0.7155l-108.759 0 -10.32 1.587z"/>
   <path id="_218066952" class="fil10" d="M147.825 444.42c0,3.8115 0.2205,9.2505 3.1755,10.32 4.4295,-3.8505 14.742,-7.1445 23.022,-7.1445l-3.1755 -3.9705c-2.772,-0.645 -2.673,-1.587 -5.5575,-1.587l-6.351 0c-4.344,0 -8.517,0.5775 -11.1135,2.382z"/>
   <path id="_218068584" class="fil11" d="M189.9 106.234l22.2285 3.9705c4.158,0.9675 24.3,3.618 25.4025,6.351l7.9395 0c6.9345,0 20.445,81.033 26.1975,83.355l0 2.382c0,3.36 4.8975,10.749 6.354,13.452l30.957 2.424 19.065 0.189 16.659 -0.9825 3.969 -6.351 -2.5515 2.2125 0.1995 0.843 -36.516 1.6305 -12.7335 -0.717 -4.6305 -4.9155 0.618 -2.2455c-3.0375,-1.614 -9.099,-14.097 -7.8945,-16.6545l-6.426 -2.121 -2.211 1.443 -0.7605 -0.522 2.9805 -4.881 0.4875 1.0965 3.5475 1.809 -0.7935 -22.2285c-15.354,-1.2765 -13.7475,-19.8465 0,-19.8465l0 -7.1445c-10.8855,0 -9.027,3.147 -15.084,4.764 0.6255,-7.515 7.3695,-10.32 15.8775,-10.32l-1.548 -0.9135 -0.0405 -3.8505c0,-2.334 -12.72,-9.531 -15.0825,-11.1135l-73.812 -13.5885 -0.8115 -1.4955 -1.587 3.969z"/>
   <path id="_84257008" class="fil11" d="M261.346 252.305l26.9925 0.795 4.7625 -0.795 -2.382 -0.7935 -5.556 0 0 -11.1135c0,-1.533 -0.2505,-1.413 -0.795,-2.382l-23.022 0 0 14.289z"/>
   <polygon id="_83635824" class="fil11" points="262.142,89.5635 273.255,89.5635 272.462,60.1905 261.346,60.1905 "/>
   <polygon id="_218240696" class="fil11" points="406.623,424.574 405.83,426.161 402.654,434.894 424.882,422.985 426.469,417.429 406.86,427.403 "/>
   <polygon id="_84098008" class="fil11" points="117.659,484.906 116.378,485.783 114.483,492.051 117.659,492.051 117.069,491.26 131.193,480.818 132.743,481.731 135.123,473.793 "/>
   <polygon id="_83854912" class="fil11" points="139.887,520.63 142.291,524.76 155.763,523.013 156.558,518.249 "/>
   <polygon id="_83966408" class="fil11" points="437.584,466.647 440.793,470.691 450.285,466.647 450.285,461.885 "/>
   <polygon id="_82962744" class="fil11" points="485.216,453.947 487.597,449.183 477.328,451.746 476.483,449.183 476.483,455.534 "/>
   <path id="_81760784" class="fil12" d="M134.33 440.451l6.351 -2.382c0,-12.327 1.11,-47.2575 7.938,-50.013l0 -2.382c0,-2.076 9.9765,-9.027 11.9085,-10.32 1.86,0.4335 2.3445,0.7935 4.7625,0.7935l6.351 0c0,10.3185 5.4495,26.4585 9.285,32.595l5.0055 30.12 2.3805 2.382 -7.1445 -42.8685c-2.8305,-4.074 0,-14.3535 0,-21.435l1.5885 0 0.9735 -8.709 2.2185 -0.774c0.2175,-10.5435 4.746,-21.144 4.746,-28.6215l0 -0.795 -0.8895 -7.1295 -16.6245 -3.7845c-4.656,3.891 -8.5935,4.8195 -13.2495,9.5235 -7.8345,7.914 -4.2135,3.975 -9.1935,13.8285 -1.7115,3.3855 -2.643,4.269 -4.0485,7.86 -0.564,1.4385 -2.796,6.606 -3.456,7.6575 -1.89,3.0105 -4.8525,14.7135 -7.3155,15.708 0,6.0015 -2.3805,9.6645 -2.3805,12.702l0 16.671 0.7935 29.373z"/>
   <polygon id="_80298912" class="fil12" points="217.685,499.195 213.715,511.104 229.593,509.515 232.614,508.762 392.334,476.173 392.334,468.236 390.745,464.267 "/>
   <path id="_218337272" class="fil12" d="M378.839 268.977l2.382 13.4955 14.289 1.587 -0.564 7.983 3.7395 41.2365c0.5835,7.5345 -1.005,23.8215 5.5575,26.1975 0,4.755 2.8785,20.0325 6.3495,21.4335l0 3.1755c0,3.9045 4.4775,7.863 5.5575,11.9085l4.764 -2.382c-3.954,-16.9695 -13.1955,-31.773 -13.5075,-52.383 -0.0735,-4.845 -1.1535,-25.551 -2.0535,-30.495 -1.005,-5.526 0.636,-11.976 0.1935,-15.216 -0.5865,-4.29 -2.4105,-11.163 -1.3035,-13.8405l-0.795 -7.938 -2.3805 -7.938 0 3.969c-8.4015,1.9575 -14.4705,-4.5165 -22.2285,-0.7935z"/>
   <path id="_82528848" class="fil12" d="M143.063 268.182l-0.795 0.795c0,14.835 13.611,22.0935 23.913,27.021l-0.792 2.9535 11.0205 6.2475 21.429 0.2955 0.7935 -13.4955c-12,0 -23.3745,-1.512 -31.5015,-5.8095 -2.997,-1.584 -8.5515,-5.265 -10.7835,-7.476 -2.166,-2.148 -6.7095,-9.081 -8.5215,-9.7365l0.7935 -3.9705 -5.556 3.1755z"/>
   <path id="_82940648" class="fil12" d="M198.632 255.48l1.704 2.286 10.0545 2.94 6.897 6.2685 -0.372 0.7155 79.326 -6.318 2.322 -1.2435 68.3865 -5.196 3.9495 -0.246c1.7805,0 1.743,0.6285 3.1755,1.5885 0,5.7465 1.5885,6.687 1.5885,11.907l0 7.9395c4.2885,1.731 4.299,20.1675 5.235,25.725 1.59,9.447 2.202,17.9085 4.005,26.9565 1.8375,9.225 2.121,17.853 3.9165,27.0435 1.1055,5.6595 3.5145,22.284 3.5145,27.4455 2.565,3.831 3.048,12.597 3.804,17.631 0.3825,2.5515 1.7535,18.6645 1.7535,19.68l3.1755 0 -10.3215 -68.271 -1.587 -10.32 -5.5575 -37.3125 -6.351 -42.0735c-1.458,-1.218 -1.587,-4.506 -1.587,-7.146 0,-1.5315 -0.2505,-1.413 -0.7935,-2.3805l-44.4465 2.538 -0.0105 1.431 -3.969 0 -107.155 8.1375c-3.069,-2.244 -5.1765,-5.3325 -8.817,-6.4815 -4.1565,-1.3095 -7.257,-3.2445 -11.8395,-3.2445z"/>
   <path id="_83841864" class="fil12" d="M277.224 151.485c0.5715,1.08 1.7385,3.969 3.1755,3.969 1.6065,0 4.764,-1.869 4.764,-3.1755 0,-2.3355 -1.635,-3.969 -3.9705,-3.969 -2.241,0 -3.0615,1.8225 -3.969,3.1755z"/>
   <path id="_80494272" class="fil13" d="M170.847 251.511l0.8775 7.9365c1.6965,0.417 1.7415,0.7965 3.885,0.7965l2.382 1.587 11.094 0.9975c4.065,2.505 7.8105,11.37 7.959,18.0555l1.587 11.115 -0.7935 13.4955 0 4.7625c1.8015,2.8395 -10.32,59.2635 -11.8635,66.729 -3.057,14.7765 -4.227,19.302 -1.8225,33.4875 1.386,8.1765 5.748,27.2235 5.748,33.9465 0,1.527 -1.7805,5.214 -2.382,6.351l7.1445 2.3805 18.4425 -184.95c-0.5835,-0.126 -8.145,-4.2645 -10.089,-5.196 -3.579,-1.7145 -7.473,-2.781 -10.6155,-4.4685 -3.432,-1.842 -6.351,-3.2715 -9.8685,-5.2155 -3.102,-1.7145 -8.6355,-3.2775 -9.303,-5.7795l-2.382 3.969z"/>
   <path id="_82153584" class="fil13" d="M199.427 527.775l-0.024 11.004 191.337 -41.967 1.5945 -6.348 -0.9135 1.548 -52.0755 10.542 -0.1995 -0.9765c-2.0145,1.3485 -128.839,30.1665 -136.543,30.1665l-3.1755 0 0 -3.969z"/>
   <path id="_80860328" class="fil13" d="M131.947 284.853l0.7575 5.418 3 -0.6255 1.0065 7.116 3.1755 0c-0.222,9.948 -9.5265,30.8745 -9.5265,38.106l0 3.174c-2.415,0.975 -7.044,21.0045 -8.097,25.2465 -0.9765,3.9315 -6.987,24 -6.987,26.355l-0.36 0.843 7.836 59.757 3.639 -5.0295 -3.1755 -32.5485 -1.5885 0c0,-7.71 -1.89,-15.3585 -2.1765,-22.3605 -0.0615,-1.515 4.674,-15.06 5.6715,-18.6015 2.7975,-9.93 7.1295,-30.972 11.589,-37.6305 0,-8.3115 7.1445,-20.994 7.1445,-34.1355l0 -2.382c0,-1.536 -9.2085,-15.2325 -9.5265,-19.053l-2.382 6.351z"/>
   <path id="_82687816" class="fil14" d="M192.282 101.472l92.0655 16.0065 6.9225 8.043 -2.265 3.6525 0.6915 -0.4815 7.1445 7.146 -0.564 0.564c-1.4805,6.3555 -4.7625,18.528 -4.7625,25.4025l0 9.5265c1.779,0.4155 1.824,0.7935 3.969,0.7935l2.3805 0 3.1755 19.053c7.38,0 22.374,-2.538 23.817,-7.938l1.476 0.0495 1.6995 4.713c-0.9315,-0.246 -2.1645,-0.7935 -2.382,-0.7935 -0.1365,0 -11.5725,4.7385 -15.084,5.5575l-1.587 5.556 0.7365 1.44 -2.325 0.942 -3.1755 0 -1.1505 2.0955 2.739 5.049c0.597,-0.2865 4.7055,-2.3805 4.7625,-2.3805 2.751,0 5.1465,7.1445 8.733,7.1445l14.334 0.2775 12.48 -2.0415 3.3525 -3 -0.7935 -79.386c0,17.7795 1.0065,33.09 -2.382,47.6325l-9.276 -8.2185 -7.8525 9.285 -1.8015 -4.3005 1.4655 -12.6435c-2.355,1.725 -2.055,3.969 -6.351,3.969l-0.7935 0c-8.46,0 -8.757,-19.053 0,-19.053l2.3805 0c3.393,0 4.869,4.9845 5.5575,7.9395l2.382 -11.115c-3.3465,-1.2105 -3.846,-4.7625 -8.733,-4.7625 -6.231,0 -8.3865,4.617 -11.9085,5.5575 1.488,-6.3855 4.7175,-10.3215 12.702,-10.3215l-6.342 -8.7375 -4.7715 0.006 -8.2065 -7.0365 -0.6615 0.4665 1.8585 -1.149 -108.895 -16.086 -2.3805 -1.599 -2.3805 3.1755z"/>
   <polygon id="_82976080" class="fil14" points="281.988,89.5635 295.483,89.5635 294.688,60.1905 286.75,60.1905 281.193,60.1905 "/>
   <polygon id="_83776024" class="fil14" points="127.979,471.411 124.01,474.587 122.421,476.173 116.378,485.783 135.123,473.793 143.063,461.091 "/>
   <polygon id="_81890088" class="fil14" points="308.185,235.634 305.803,236.428 305.803,249.924 310.566,249.924 313.741,248.336 313.741,234.84 "/>
   <polygon id="_82381704" class="fil14" points="136.712,513.486 138.298,516.661 156.558,515.073 156.558,511.104 "/>
   <polygon id="_81709976" class="fil14" points="435.202,463.471 437.584,466.647 450.285,461.885 450.285,457.916 449.491,457.916 447.111,457.916 "/>
   <polygon id="_82344624" class="fil14" points="193.869,511.104 193.869,514.279 209.747,514.279 212.129,510.31 "/>
   <path id="_81837512" class="fil15" d="M390.74 496.812l-191.337 41.967 0.024 -11.004 -7.7895 5.055c-4.1595,2.7 -10.8945,5.568 -14.328,6.9825 -6.042,2.4915 -4.4445,0.771 -4.872,-5.6895 -0.2505,-3.813 -0.7965,-6.771 -0.7965,-11.9055l0 -1.587c0,-0.7155 4.14,-7.836 4.764,-8.733l1.587 -7.1445c0,-6.717 -1.7865,-12.321 -5.556,-15.084l-6.8745 -5.868 0.5235 31.272 7.104 122.282 26.238 37.284 10.32 13.4955 -1.5885 -39.693 -7.938 -10.32 -4.818 -84.9405 95.2485 -21.7395 2.451 81.276 7.938 8.733 1.557 0.7935 0.825 33.342 0 -16.671 0.7935 0 -0.009 11.121 1.5975 3.1695 2.382 2.3805 3.174 2.382 0 -38.1045 -9.525 -9.5265 -2.349 -80.9745 5.5245 -1.587 80.214 -18.105 5.5155 -12.858z"/>
   <path id="_83108696" class="fil15" d="M134.33 464.267l3.4845 -0.045 -2.031 -11.952 2.5155 -3.087 2.382 -0.7935 3.969 -3.1755 3.1755 -0.7935c2.5965,-1.8045 6.7695,-2.382 11.1135,-2.382l6.351 0c2.8845,0 2.7855,0.942 5.5575,1.587l2.382 0 1.9755 4.6215 11.541 1.5735 2.199 -5.4735 -0.633 -3.102 -2.3805 -2.382 -0.795 -0.7935 -7.938 -3.1755 -17.4645 -0.7935 -11.115 1.587 -7.938 2.382 -6.351 2.382 -3.969 2.3805 -3.969 2.382 -3.639 5.0295 -7.836 -59.757 0.36 -0.843c0,-2.355 6.0105,-22.4235 6.987,-26.355 1.053,-4.242 5.682,-24.2715 8.097,-25.2465l0 -3.174c0,-7.2315 9.3045,-28.158 9.5265,-38.106l-3.1755 0 -1.0065 -7.116 -3 0.6255 -0.7575 -5.418c-1.7445,2.751 -22.536,87.336 -22.335,89.751 1.302,15.594 4.143,34.764 6.78,50.4405 2.769,16.4535 0.273,38.8275 17.937,39.222z"/>
   <path id="_81760760" class="fil16" d="M188.312 137.989l3.1755 64.3035c0.4425,4.869 5.6955,19.845 7.1445,21.4335l1.5885 1.587 7.938 5.5575 14.982 3.5565 0.102 0.4125 -3.969 0 1.0215 11.8905 -0.3705 0.744 23.1645 4.0365 0 -14.289 -4.7865 0.18 -8.709 -0.9735 -0.003 -0.633 63.5115 1.4265 15.084 -1.5885 5.556 -0.7935 5.5575 -0.7935 -2.382 0 19.053 -5.5575 7.1445 -5.556 3.1755 -3.9705c1.344,-0.984 2.3355,-3.9495 3.057,-8.25l0.1185 -2.8635 -0.7935 3.1755 -3.969 6.351c-8.1225,5.643 -25.974,3.162 -36.5115,2.3745 -7.0395,-0.525 -13.602,-0.765 -20.667,-0.768 -6.7965,-0.0015 -11.1855,-2.4 -18.2385,-2.4 -1.224,-3.3795 -3.369,-3.135 -5.394,-11.2785 -1.08,-4.35 -2.217,-8.238 -3.3285,-12.549 -2.181,-8.466 -4.947,-16.494 -7.308,-25.239 -3.039,-11.256 -13.3155,-40.2975 -14.136,-50.166 -5.31,-0.4425 -25.023,-4.458 -26.991,-7.1445l-22.2285 -3.9705c-3.321,4.7805 -1.5885,23.6565 -1.5885,31.755z"/>
   <path id="_84215160" class="fil16" d="M444.729 418.223l-4.764 6.351 0 1.587 0 2.382 5.5575 3.969 1.5885 1.5885c3.762,2.5185 6.3495,7.986 6.3495,14.289l0 3.969c0,2.418 -0.36,2.904 -0.666,4.713l5.628 14.8635 14.091 -4.4925 12.702 -13.4955 -8.733 1.587 0 -6.351 0 -0.7935 1.5885 -7.938 0 -7.9395c-2.991,-4.3035 -2.8035,-7.02 -7.455,-12.3915 -2.1705,-2.508 -9.5265,-5.8665 -13.98,-5.8665l-0.7935 0 -7.1445 0.7935 -3.969 3.1755z"/>
   <path id="_82513304" class="fil16" d="M401.861 438.863c-2.5665,5.3475 0.4065,15.2625 1.725,19.7085 0.8085,2.7285 2.499,5.385 4.1745,7.7295 5.4495,7.6275 8.604,11.5185 18.3525,14.793 4.455,1.497 5.6055,1.632 13.527,-0.7395 4.3365,-1.299 9.843,-4.05 10.6455,-13.707l-9.492 4.044 -3.2085 -4.044 -2.382 -3.1755 -3.969 -5.556 -2.382 -5.5575 -4.7625 -13.4955 -0.864 -11.112 -21.3645 11.112z"/>
   <path id="_219121680" class="fil16" d="M112.896 500.784l3.969 22.2285 3.969 6.3495 3.969 4.764 1.5885 1.587c2.493,1.932 6.792,6.351 11.1135,6.351 3.7455,0 10.0095,-2.9025 12.453,-5.811 0.5925,-0.7035 1.2765,-1.7685 2.1105,-3.441 1.8435,-3.69 2.157,-6.5955 3.6945,-9.7995l-13.4715 1.7475 -2.4045 -4.1295 -1.5885 -3.969 -1.587 -3.1755 -1.5885 -6.351 -2.3805 -10.32 -0.795 -4.764 0 -1.587 -5.415 1.974c-1.3845,4.2675 -10.008,5.256 -11.256,8.346l-2.3805 0z"/>
   <path id="_82637360" class="fil16" d="M162.114 469.029l-8.55 9.771 0.612 0.549 3.1755 0c4.7115,0 14.067,6.513 15.084,10.32 3.7695,2.763 5.556,8.367 5.556,15.084l12.702 -5.5575 0.0915 1.887 8.6415 -2.6805 0.7935 -8.733c0,-12.171 -12.8265,-23.8155 -25.404,-23.8155 -6.7665,0 -8.2095,2.13 -12.702,3.1755z"/>
   <polygon id="_218434872" class="fil16" points="228.903,89.5635 246.264,89.5635 247.851,89.5635 247.058,76.068 247.058,60.1905 261.346,60.1905 272.462,60.1905 281.193,60.1905 286.75,60.1905 228.784,60.0915 228.799,60.9855 "/>
   <path id="_82545664" class="fil16" d="M174.022 519.042l-1.5465 0.8625c-0.0405,2.6925 0.24,18.984 2.34,18.984 2.5155,0 17.2425,-8.037 19.8465,-8.7315l6.351 -4.764 0.7935 -0.7935 3.9705 -3.969 -13.5 -0.7455 1.0125 -8.7555 -19.2675 7.9125z"/>
   <polygon id="_81993648" class="fil16" points="247.851,89.5635 262.142,89.5635 261.346,60.1905 247.058,60.1905 247.058,76.068 "/>
   <path id="_83453584" class="fil16" d="M412.18 419.016l-0.7935 0.7935 6.351 -2.3805 -5.5575 -11.9085c-1.464,0.981 -3.1755,2.3115 -3.1755,4.7625 0,2.961 6.2595,7.71 3.1755,8.733z"/>
   <path id="_83356504" class="fil17" d="M173.229 247.542c0.6675,2.502 6.201,4.065 9.303,5.7795 3.5175,1.944 6.4365,3.3735 9.8685,5.2155 3.1425,1.6875 7.0365,2.754 10.6155,4.4685 1.944,0.9315 9.5055,5.07 10.089,5.196l-18.4425 184.95 4.7715 4.017 198.458 -36.5655c0,-1.0155 -1.371,-17.1285 -1.7535,-19.68 -0.756,-5.034 -1.239,-13.8 -3.804,-17.631 0,-5.1615 -2.409,-21.786 -3.5145,-27.4455 -1.7955,-9.1905 -2.079,-17.8185 -3.9165,-27.0435 -1.803,-9.048 -2.415,-17.5095 -4.005,-26.9565 -0.936,-5.5575 -0.9465,-23.994 -5.235,-25.725l0 -7.9395c0,-5.22 -1.5885,-6.1605 -1.5885,-11.907 -1.4325,-0.96 -1.395,-1.5885 -3.1755,-1.5885l-3.9495 0.246 -68.3865 5.196 -2.322 1.2435 -79.326 6.318 0.372 -0.7155 -6.897 -6.2685 -10.0545 -2.94 -1.704 -2.286 -21.1395 -7.896 -1.8825 -1.629 -0.7935 0 -1.587 1.587z"/>
   <polygon id="_84318192" class="fil17" points="200.22,638.121 293.101,612.717 290.651,531.441 195.402,553.18 "/>
   <polygon id="_82964288" class="fil17" points="301.834,610.337 385.19,587.314 385.224,509.67 305.01,527.775 299.486,529.362 "/>
   <polygon id="_81203208" class="fil17" points="208.83,465.988 216.126,481.881 396.234,446.45 396.303,422.985 202.566,458.515 "/>
   <path id="_82721136" class="fil17" d="M208.158 648.441l1.5885 39.693 93.6285 -27.1455 0.0465 -5.403 -0.825 -33.342 -1.557 -0.7935c-1.365,3.7725 -39.5265,12.021 -46.044,14.289 -7.5675,2.6355 -39.7545,12.1125 -46.8375,12.702z"/>
   <polygon id="_83238752" class="fil17" points="311.36,619.863 311.36,657.967 395.51,633.359 395.51,595.253 390.745,591.284 395.129,596.48 "/>
   <path id="_82191408" class="fil17" d="M139.887 271.358l-2.7615 4.1415 6.7305 14.9115c4.2765,0.468 7.938,6.618 8.076,11.7615l3.831 3.3225c-2.769,5.232 -13.4955,26.016 -13.4955,32.547l0 2.382c-2.7585,1.113 -7.7985,19.053 -9.228,23.3205 -1.1355,3.3945 -8.2365,24.3195 -8.2365,25.1055 0,10.6875 2.427,49.0485 5.5575,53.982l3.969 -2.3805 -0.7935 -29.373 0 -16.671c0,-3.0375 2.3805,-6.7005 2.3805,-12.702 2.463,-0.9945 5.4255,-12.6975 7.3155,-15.708 0.66,-1.0515 2.892,-6.219 3.456,-7.6575 1.4055,-3.591 2.337,-4.4745 4.0485,-7.86 4.98,-9.8535 1.359,-5.9145 9.1935,-13.8285 4.656,-4.704 8.5935,-5.6325 13.2495,-9.5235l16.6245 3.7845 0.8895 7.1295 0 0.795c0,7.4775 -4.5285,18.078 -4.746,28.6215l-2.2185 0.774 -0.9735 8.709 -1.5885 0c0,7.0815 -2.8305,17.361 0,21.435l16.671 -88.119 0 -4.7625 -21.429 -0.2955 -11.0205 -6.2475 0.792 -2.9535c-10.302,-4.9275 -23.913,-12.186 -23.913,-27.021l-2.3805 2.3805z"/>
   <polygon id="_219029416" class="fil17" points="213.715,511.104 208.83,518.114 205.606,522.048 203.396,524.6 392.334,484.113 392.334,476.173 232.614,508.762 229.593,509.515 "/>
   <path id="_82191616" class="fil17" d="M383.601 304.7l5.5575 37.3125 1.8795 6.2895 3.4965 2.6835 2.9595 18.087 2.778 -0.069c0,7.8705 6.567,25.3665 9.5265,30.96l6.351 -3.969c-1.08,-4.0455 -5.5575,-8.004 -5.5575,-11.9085l0 -3.1755c-3.471,-1.401 -6.3495,-16.6785 -6.3495,-21.4335 -6.5625,-2.376 -4.974,-18.663 -5.5575,-26.1975l-3.7395 -41.2365 0.564 -7.983 -14.289 -1.587 2.3805 22.227z"/>
   <path id="_218358344" class="fil18" d="M432.821 388.849l-8.7315 3.1755 -3.1755 1.587 -4.764 2.382 -6.351 3.969 -5.253 3.7125c-2.313,-9.1635 -7.5735,-11.4495 -9.009,-24.3795 -0.3345,-3.012 -4.107,-25.887 -4.791,-26.964l10.3215 68.271 11.1135 -1.587c3.084,-1.023 -3.1755,-5.772 -3.1755,-8.733 0,-2.451 1.7115,-3.7815 3.1755,-4.7625l3.969 -3.1755 3.1755 -2.382 2.382 -0.7935c2.4165,-2.1015 9.915,-5.9505 14.289,-3.1755l3.969 4.7625c4.02,-2.691 6.384,-6.684 6.384,-13.5135l-13.5285 1.6065z"/>
   <polygon id="_81878984" class="fil19" points="243.089,251.511 251.822,253.099 288.339,253.099 261.346,252.305 254.202,252.305 254.202,238.016 261.346,238.016 284.368,238.016 293.101,237.222 229.59,235.796 229.593,236.428 238.302,237.402 243.089,237.222 "/>
   <path id="_82664768" class="fil20" d="M304.215 200.705l-6.351 0 0 -1.587c3.507,0 8.9085,0.6045 11.115,-0.795l0.7365 1.44 -2.325 0.942 -3.1755 0z"/>
   <path id="_83635728" class="fil20" d="M285.164 152.279c0,1.3065 -3.1575,3.1755 -4.764,3.1755 -1.437,0 -2.604,-2.889 -3.1755,-3.969 0.9075,-1.353 1.728,-3.1755 3.969,-3.1755 2.3355,0 3.9705,1.6335 3.9705,3.969zm-3.1755 13.4955c4.7235,-1.0995 8.7315,-3.042 8.7315,-8.7315l0 -2.382c0,-6.3465 -4.9845,-6.9345 -8.7315,-8.733 -13.7475,0 -15.354,18.57 0,19.8465z"/>
   <path id="_219121608" class="fil20" d="M325.65 151.485c0,0.966 -1.6425,2.382 -3.1755,2.382 -1.2915,0 -1.851,-2.172 -2.4255,-3.1995l1.6755 -3.129 3.132 -0.0225c0.414,1.7805 0.7935,1.8255 0.7935,3.969zm3.1755 8.733l0.7935 -7.1445c-0.6885,-2.955 -2.1645,-7.9395 -5.5575,-7.9395l-2.3805 0c-8.757,0 -8.46,19.053 0,19.053l0.7935 0c4.296,0 3.996,-2.244 6.351,-3.969z"/>
   <path id="_83639984" class="fil20" d="M281.988 138.783c7.566,0 6.9915,2.163 11.907,4.764 -0.4785,-5.7615 -5.526,-9.855 -11.1135,-10.32 -8.508,0 -15.252,2.805 -15.8775,10.32 6.057,-1.617 4.1985,-4.764 15.084,-4.764z"/>
   <path id="_84356040" class="fil20" d="M301.039 191.178l-18.258 -3.1755 -3.5475 -1.809 -0.4875 -1.0965 -2.9805 4.881 0.7605 0.522 2.211 -1.443 6.426 2.121 25.4025 1.5885c3.5115,-0.819 14.9475,-5.5575 15.084,-5.5575 0.2175,0 1.4505,0.5475 2.382,0.7935l-1.6995 -4.713 -1.476 -0.0495c-1.443,5.4 -16.437,7.938 -23.817,7.938z"/>
   <path id="_83857392" class="fil20" d="M332.001 141.958c-0.3,-3.7785 -1.9455,-7.035 -5.5575,-9.5265l-2.382 0c-7.9845,0 -11.214,3.936 -12.702,10.3215 3.522,-0.9405 5.6775,-5.5575 11.9085,-5.5575 4.887,0 5.3865,3.552 8.733,4.7625z"/>
  </g>
 </g>
</svg>
